<?xml version="1.0" encoding="UTF-8" standalone="no"?>
<!-- Created with Inkscape (http://www.inkscape.org/) -->

<svg
   width="135.46654mm"
   height="135.46654mm"
   viewBox="0 0 135.46653 135.46655"
   version="1.1"
   id="svg5"
   sodipodi:docname="cross.svg"
   xml:space="preserve"
   inkscape:version="1.2.1 (9c6d41e410, 2022-07-14)"
   xmlns:inkscape="http://www.inkscape.org/namespaces/inkscape"
   xmlns:sodipodi="http://sodipodi.sourceforge.net/DTD/sodipodi-0.dtd"
   xmlns="http://www.w3.org/2000/svg"
   xmlns:svg="http://www.w3.org/2000/svg"><sodipodi:namedview
     id="namedview7"
     pagecolor="#ffffff"
     bordercolor="#000000"
     borderopacity="0.25"
     inkscape:showpageshadow="2"
     inkscape:pageopacity="0.0"
     inkscape:pagecheckerboard="0"
     inkscape:deskcolor="#d1d1d1"
     inkscape:document-units="mm"
     showgrid="false"
     inkscape:zoom="0.72515432"
     inkscape:cx="332.34305"
     inkscape:cy="369.57651"
     inkscape:window-width="1920"
     inkscape:window-height="1001"
     inkscape:window-x="-9"
     inkscape:window-y="-9"
     inkscape:window-maximized="1"
     inkscape:current-layer="layer1" /><defs
     id="defs2" /><g
     inkscape:label="Layer 1"
     inkscape:groupmode="layer"
     id="layer1"
     transform="translate(-17.280249,-80.401874)"><g
       id="g11"
       transform="matrix(0,-0.26457248,0.26457248,0,17.280183,215.86847)"
       style="fill:#4d4d4d">
	<path
   d="M 301.258,256.01 502.645,54.645 c 12.501,-12.501 12.501,-32.769 0,-45.269 -12.501,-12.501 -32.769,-12.501 -45.269,0 v 0 L 256.01,210.762 54.645,9.376 c -12.501,-12.501 -32.769,-12.501 -45.269,0 -12.5,12.501 -12.501,32.769 0,45.269 L 210.762,256.01 9.376,457.376 c -12.501,12.501 -12.501,32.769 0,45.269 12.501,12.5 32.769,12.501 45.269,0 L 256.01,301.258 457.375,502.645 c 12.501,12.501 32.769,12.501 45.269,0 12.501,-12.501 12.501,-32.769 0,-45.269 z"
   id="path9"
   style="fill:#4d4d4d" />
</g></g></svg>
